<svg width="53" height="60" viewBox="0 0 53 60" fill="none" xmlns="http://www.w3.org/2000/svg">
<g clip-path="url(#clip0_215_154)">
<path d="M35.1651 28.5C35.1138 29.0942 34.889 29.6608 34.5181 30.1306C34.1472 30.6004 33.6463 30.953 33.0764 31.1456C32.5066 31.3381 31.8925 31.3621 31.3091 31.2147C30.7257 31.0673 30.1983 30.7549 29.7911 30.3156C29.384 29.8762 29.1147 29.329 29.0163 28.7406C28.9178 28.1523 28.9944 27.5482 29.2367 27.0023C29.4789 26.4563 29.8764 25.992 30.3806 25.666C30.8848 25.3401 31.4739 25.1666 32.076 25.1667C32.4999 25.1842 32.9161 25.2844 33.3009 25.4615C33.6857 25.6386 34.0314 25.8892 34.3184 26.1988C34.6053 26.5084 34.8278 26.871 34.9731 27.2659C35.1183 27.6607 35.1836 28.0801 35.1651 28.5ZM21.0217 25.1667C20.1703 25.2263 19.3734 25.6034 18.7916 26.222C18.2098 26.8405 17.8863 27.6546 17.8863 28.5C17.8863 29.3454 18.2098 30.1595 18.7916 30.778C19.3734 31.3966 20.1703 31.7737 21.0217 31.8333C21.4456 31.8158 21.8618 31.7156 22.2466 31.5385C22.6314 31.3614 22.9771 31.1108 23.2641 30.8012C23.551 30.4916 23.7735 30.129 23.9188 29.7341C24.0641 29.3393 24.1293 28.9199 24.1108 28.5C24.132 28.0792 24.0686 27.6585 23.9241 27.2622C23.7796 26.866 23.5569 26.5021 23.2691 26.1919C22.9813 25.8817 22.6341 25.6313 22.2477 25.4553C21.8613 25.2793 21.4434 25.1812 21.0183 25.1667H21.0217ZM53 6.18V60C45.3697 53.3217 47.8111 55.5317 38.9474 47.37L40.5526 52.92H6.20859C4.55809 52.9156 2.97692 52.2621 1.81268 51.1032C0.648442 49.9443 -0.00356005 48.3749 1.46216e-05 46.74V6.18C-0.00356005 4.54507 0.648442 2.97565 1.81268 1.81677C2.97692 0.657895 4.55809 0.0044149 6.20859 0L46.7914 0C48.4419 0.0044149 50.0231 0.657895 51.1873 1.81677C52.3516 2.97565 53.0036 4.54507 53 6.18ZM44.3686 34.62C44.2705 28.5381 42.7793 22.5577 40.0074 17.13C37.5684 15.2324 34.5948 14.1317 31.4972 13.98L31.0732 14.46C33.8308 15.1869 36.4012 16.4855 38.6143 18.27C35.1591 16.4248 31.3235 15.3871 27.401 15.2363C23.4786 15.0856 19.5734 15.8256 15.9841 17.4C14.8636 17.91 14.1973 18.27 14.1973 18.27C16.5299 16.393 19.2519 15.0488 22.1692 14.3333L21.873 13.98C18.7754 14.1317 15.8018 15.2324 13.3627 17.13C10.5885 22.5571 9.095 28.5376 8.99487 34.62C10.0394 36.0717 11.4281 37.2469 13.0389 38.042C14.6496 38.8372 16.433 39.228 18.232 39.18C18.232 39.18 19.3526 37.83 20.2612 36.69C18.132 36.1578 16.2574 34.9057 14.9612 33.15C15.407 33.4583 16.1389 33.86 16.2029 33.9C19.0772 35.452 22.2641 36.3514 25.5326 36.533C28.8012 36.7146 32.0696 36.1739 35.1012 34.95C36.3259 34.4922 37.4943 33.8984 38.584 33.18C37.2393 34.9734 35.2975 36.238 33.1023 36.75C34.0109 37.89 35.1012 39.18 35.1012 39.18C36.904 39.2251 38.6907 38.8332 40.3058 38.0385C41.9209 37.2438 43.3156 36.0703 44.3686 34.62Z" fill="white"/>
</g>
<defs>
<clipPath id="clip0_215_154">
<rect width="53" height="60" fill="white"/>
</clipPath>
</defs>
</svg>
