<svg width="60" height="60" viewBox="0 0 60 60" fill="none" xmlns="http://www.w3.org/2000/svg">
<path fill-rule="evenodd" clip-rule="evenodd" d="M59.9988 30C60.0688 37.8871 56.9475 45.4786 51.3216 51.1046C45.6956 56.7305 38.0257 59.9303 29.999 60C21.9726 59.9298 14.3032 56.7298 8.67772 51.1039C3.0522 45.4779 -0.068796 37.8868 0.00115085 30C-0.068796 22.1132 3.0522 14.5221 8.67772 8.89615C14.3032 3.27022 21.9726 0.0702393 29.999 0C38.0257 0.069712 45.6956 3.26946 51.3216 8.89544C56.9475 14.5214 60.0688 22.1129 59.9988 30ZM29.8992 6.4C28.4286 6.41229 26.9748 6.7092 25.621 7.27376C24.2672 7.83832 23.0398 8.65948 22.0091 9.6903C20.9784 10.7211 20.1644 11.9414 19.6138 13.2814C19.0632 14.6214 18.7867 16.0549 18.8002 17.5V24.7C18.7867 26.1451 19.0632 27.5786 19.6138 28.9186C20.1644 30.2586 20.9784 31.4789 22.0091 32.5097C23.0398 33.5405 24.2672 34.3617 25.621 34.9262C26.9748 35.4908 28.4286 35.7877 29.8992 35.8C30.7414 35.8001 31.5808 35.7048 32.4008 35.516C32.512 35.4921 32.6143 35.4382 32.696 35.3602C32.7777 35.2823 32.8356 35.1834 32.8632 35.0748C32.8907 34.9662 32.8868 34.8522 32.8518 34.7457C32.8168 34.6391 32.7523 34.5443 32.6654 34.472L32.6002 34.41L26.207 28.3C25.6961 27.8029 25.2908 27.211 25.0147 26.5586C24.7387 25.9063 24.5974 25.2065 24.599 24.5V17.7C24.599 16.3188 25.1575 14.9941 26.1514 14.0174C27.1454 13.0407 28.4935 12.492 29.8992 12.492C31.3049 12.492 32.6531 13.0407 33.6471 14.0174C34.641 14.9941 35.1994 16.3188 35.1994 17.7V17.952C35.1892 18.3325 35.2566 18.7111 35.3977 19.0656C35.5388 19.4201 35.7507 19.7432 36.021 20.0159C36.2912 20.2886 36.6143 20.5053 36.9712 20.6533C37.3281 20.8013 37.7115 20.8775 38.0989 20.8775C38.4862 20.8775 38.8697 20.8013 39.2266 20.6533C39.5834 20.5053 39.9065 20.2886 40.1768 20.0159C40.4471 19.7432 40.659 19.4201 40.8001 19.0656C40.9412 18.7111 41.0086 18.3325 40.9983 17.952V17.496C41.0112 16.0513 40.7343 14.6182 40.1835 13.2787C39.6326 11.9391 38.8186 10.7193 37.788 9.68888C36.7573 8.65849 35.5301 7.83769 34.1765 7.27338C32.823 6.70907 31.3696 6.41229 29.8992 6.4V6.4ZM40.9983 41.902C41.0266 43.3518 40.7604 44.7925 40.2153 46.14C39.6702 47.4875 38.8572 48.7147 37.8237 49.7498C36.7903 50.7849 35.5572 51.6071 34.1965 52.1685C32.8359 52.7298 31.375 53.0189 29.8992 53.0189C28.4235 53.0189 26.9626 52.7298 25.602 52.1685C24.2413 51.6071 23.0082 50.7849 21.9748 49.7498C20.9413 48.7147 20.1283 47.4875 19.5832 46.14C19.0381 44.7925 18.7719 43.3518 18.8002 41.902V41.452C18.8202 40.7095 19.1345 40.004 19.676 39.4857C20.2176 38.9675 20.9437 38.6775 21.6996 38.6775C22.4556 38.6775 23.1816 38.9675 23.7232 39.4857C24.2648 40.004 24.579 40.7095 24.599 41.452V41.702C24.599 43.083 25.1574 44.4074 26.1511 45.3839C27.1449 46.3604 28.4928 46.909 29.8982 46.909C31.3037 46.909 32.6515 46.3604 33.6453 45.3839C34.6391 44.4074 35.1974 43.083 35.1974 41.702V34.902C35.1991 34.1955 35.0578 33.4957 34.7817 32.8434C34.5057 32.191 34.1004 31.5991 33.5894 31.102L27.1962 24.994L27.1311 24.932C27.0442 24.8595 26.9797 24.7646 26.9448 24.6579C26.91 24.5513 26.9062 24.4372 26.934 24.3285C26.9617 24.2199 27.0199 24.121 27.1018 24.0432C27.1838 23.9653 27.2863 23.9116 27.3977 23.888C28.2177 23.6991 29.0571 23.6038 29.8992 23.604C31.3699 23.6163 32.8237 23.9132 34.1775 24.4778C35.5313 25.0423 36.7587 25.8635 37.7894 26.8943C38.8201 27.9251 39.6341 29.1454 40.1847 30.4854C40.7353 31.8254 41.0117 33.2589 40.9983 34.704V41.902Z" fill="white"/>
</svg>
