<svg xmlns="http://www.w3.org/2000/svg" xmlns:xlink="http://www.w3.org/1999/xlink" viewBox="0 0 500 500"><defs><style>.cls-1,.cls-2{fill:none;stroke-width:14px;}.cls-1,.cls-10,.cls-11,.cls-12,.cls-13,.cls-14,.cls-15,.cls-2,.cls-3,.cls-4,.cls-5,.cls-6,.cls-7,.cls-8,.cls-9{stroke-miterlimit:10;}.cls-1{stroke:url(#linear-gradient);}.cls-2{stroke:url(#linear-gradient-2);}.cls-10,.cls-11,.cls-12,.cls-13,.cls-14,.cls-15,.cls-3,.cls-4,.cls-5,.cls-6,.cls-7,.cls-8,.cls-9{stroke-width:2px;}.cls-3{fill:url(#linear-gradient-3);stroke:url(#linear-gradient-4);}.cls-14,.cls-4{fill:url(#linear-gradient-5);}.cls-4{stroke:url(#linear-gradient-6);}.cls-13,.cls-5{fill:url(#linear-gradient-7);}.cls-5{stroke:url(#linear-gradient-8);}.cls-12,.cls-6{fill:url(#linear-gradient-9);}.cls-6{stroke:url(#linear-gradient-10);}.cls-11,.cls-7{fill:url(#linear-gradient-11);}.cls-7{stroke:url(#linear-gradient-12);}.cls-10,.cls-8{fill:url(#linear-gradient-13);}.cls-8{stroke:url(#linear-gradient-14);}.cls-9{fill:url(#linear-gradient-15);stroke:url(#linear-gradient-16);}.cls-10{stroke:url(#linear-gradient-18);}.cls-11{stroke:url(#linear-gradient-20);}.cls-12{stroke:url(#linear-gradient-22);}.cls-13{stroke:url(#linear-gradient-24);}.cls-14{stroke:url(#linear-gradient-26);}.cls-15{fill:url(#linear-gradient-27);stroke:url(#linear-gradient-28);}</style><linearGradient id="linear-gradient" x1="113.1" y1="208.79" x2="386.9" y2="208.79" gradientUnits="userSpaceOnUse"><stop offset="0" stop-color="#ed1e79"/><stop offset="1" stop-color="#93278f"/></linearGradient><linearGradient id="linear-gradient-2" x1="55.5" y1="250" x2="444.5" y2="250" xlink:href="#linear-gradient"/><linearGradient id="linear-gradient-3" x1="473.94" y1="58.51" x2="30.14" y2="58.51" xlink:href="#linear-gradient"/><linearGradient id="linear-gradient-4" x1="222.19" y1="58.51" x2="277.81" y2="58.51" xlink:href="#linear-gradient"/><linearGradient id="linear-gradient-5" x1="473.94" y1="84.17" x2="30.14" y2="84.17" xlink:href="#linear-gradient"/><linearGradient id="linear-gradient-6" x1="126.44" y1="84.17" x2="182.07" y2="84.17" xlink:href="#linear-gradient"/><linearGradient id="linear-gradient-7" x1="473.94" y1="154.26" x2="30.14" y2="154.26" xlink:href="#linear-gradient"/><linearGradient id="linear-gradient-8" x1="56.35" y1="154.26" x2="111.98" y2="154.26" xlink:href="#linear-gradient"/><linearGradient id="linear-gradient-9" x1="473.94" y1="250" x2="30.14" y2="250" xlink:href="#linear-gradient"/><linearGradient id="linear-gradient-10" x1="30.7" y1="250" x2="86.32" y2="250" xlink:href="#linear-gradient"/><linearGradient id="linear-gradient-11" x1="473.94" y1="345.74" x2="30.14" y2="345.74" xlink:href="#linear-gradient"/><linearGradient id="linear-gradient-12" x1="56.35" y1="345.74" x2="111.98" y2="345.74" xlink:href="#linear-gradient"/><linearGradient id="linear-gradient-13" x1="473.94" y1="415.83" x2="30.14" y2="415.83" xlink:href="#linear-gradient"/><linearGradient id="linear-gradient-14" x1="126.44" y1="415.83" x2="182.07" y2="415.83" xlink:href="#linear-gradient"/><linearGradient id="linear-gradient-15" x1="473.94" y1="441.49" x2="30.14" y2="441.49" xlink:href="#linear-gradient"/><linearGradient id="linear-gradient-16" x1="222.19" y1="441.49" x2="277.81" y2="441.49" xlink:href="#linear-gradient"/><linearGradient id="linear-gradient-18" x1="317.93" y1="415.83" x2="373.56" y2="415.83" xlink:href="#linear-gradient"/><linearGradient id="linear-gradient-20" x1="388.02" y1="345.74" x2="443.65" y2="345.74" xlink:href="#linear-gradient"/><linearGradient id="linear-gradient-22" x1="413.68" y1="250" x2="469.3" y2="250" xlink:href="#linear-gradient"/><linearGradient id="linear-gradient-24" x1="388.02" y1="154.26" x2="443.65" y2="154.26" xlink:href="#linear-gradient"/><linearGradient id="linear-gradient-26" x1="317.93" y1="84.17" x2="373.56" y2="84.17" xlink:href="#linear-gradient"/><linearGradient id="linear-gradient-27" x1="375" y1="287.5" x2="125" y2="287.5" xlink:href="#linear-gradient"/><linearGradient id="linear-gradient-28" x1="123.3" y1="288.03" x2="376.7" y2="288.03" xlink:href="#linear-gradient"/></defs><g id="Layer_11" data-name="Layer 11"><polygon class="cls-1" points="125 325 250 100 375 325 325 325 250 190 175 325 125 325"/><circle class="cls-2" cx="250" cy="250" r="187.5"/><circle class="cls-3" cx="250" cy="58.51" r="26.81"/><circle class="cls-4" cx="154.26" cy="84.17" r="26.81"/><circle class="cls-5" cx="84.17" cy="154.26" r="26.81"/><circle class="cls-6" cx="58.51" cy="250" r="26.81"/><circle class="cls-7" cx="84.17" cy="345.74" r="26.81"/><circle class="cls-8" cx="154.26" cy="415.83" r="26.81"/><circle class="cls-9" cx="250" cy="441.49" r="26.81"/><circle class="cls-10" cx="345.74" cy="415.83" r="26.81"/><circle class="cls-11" cx="415.83" cy="345.74" r="26.81"/><circle class="cls-12" cx="441.49" cy="250" r="26.81"/><circle class="cls-13" cx="415.83" cy="154.26" r="26.81"/><circle class="cls-14" cx="345.74" cy="84.17" r="26.81"/><polygon class="cls-15" points="125 175 250 400 375 175 325 175 250 310 175 175 125 175"/></g></svg>