<svg xmlns="http://www.w3.org/2000/svg" xmlns:xlink="http://www.w3.org/1999/xlink" width="1649.55" height="438.6" viewBox="0 0 1649.55 438.6">
  <defs>
    <linearGradient id="linear-gradient" x1="8.774" y1="0.507" x2="0" y2="0.507" gradientUnits="objectBoundingBox">
      <stop offset="0" stop-color="#ed1e79"/>
      <stop offset="1" stop-color="#93278f"/>
    </linearGradient>
    <linearGradient id="linear-gradient-2" x1="7.888" y1="0.507" x2="-0.887" y2="0.507" xlink:href="#linear-gradient"/>
    <linearGradient id="linear-gradient-3" x1="10.046" y1="0.507" x2="-3.106" y2="0.507" xlink:href="#linear-gradient"/>
    <linearGradient id="linear-gradient-4" x1="26.017" y1="0.507" x2="-13.381" y2="0.507" xlink:href="#linear-gradient"/>
    <linearGradient id="linear-gradient-5" x1="6.825" y1="0.507" x2="-4.446" y2="0.507" xlink:href="#linear-gradient"/>
    <linearGradient id="linear-gradient-6" x1="4.477" y1="0.507" x2="-4.301" y2="0.507" xlink:href="#linear-gradient"/>
    <linearGradient id="linear-gradient-7" x1="4.408" y1="0.507" x2="-6.863" y2="0.507" xlink:href="#linear-gradient"/>
    <linearGradient id="linear-gradient-8" x1="2.287" y1="0.507" x2="-5.607" y2="0.507" xlink:href="#linear-gradient"/>
    <linearGradient id="linear-gradient-9" x1="1.572" y1="0.507" x2="-9.692" y2="0.507" xlink:href="#linear-gradient"/>
    <linearGradient id="linear-gradient-10" x1="4.657" y1="0.5" x2="-3.729" y2="0.5" xlink:href="#linear-gradient"/>
    <linearGradient id="linear-gradient-11" x1="6.443" y1="0.5" x2="-1.943" y2="0.5" xlink:href="#linear-gradient"/>
    <linearGradient id="linear-gradient-12" x1="7.75" y1="0.5" x2="-0.636" y2="0.5" xlink:href="#linear-gradient"/>
    <linearGradient id="linear-gradient-13" x1="8.228" y1="0.5" x2="-0.157" y2="0.5" xlink:href="#linear-gradient"/>
    <linearGradient id="linear-gradient-17" x1="2.872" y1="0.5" x2="-5.514" y2="0.5" xlink:href="#linear-gradient"/>
    <linearGradient id="linear-gradient-18" x1="1.564" y1="0.5" x2="-6.821" y2="0.5" xlink:href="#linear-gradient"/>
    <linearGradient id="linear-gradient-19" x1="1.086" y1="0.5" x2="-7.3" y2="0.5" xlink:href="#linear-gradient"/>
    <linearGradient id="linear-gradient-22" x1="1" y1="0.5" x2="0" y2="0.5" xlink:href="#linear-gradient"/>
  </defs>
  <g id="Layer_12" data-name="Layer 12" transform="translate(-30.7 -30.7)">
    <path id="Path_146" data-name="Path 146" d="M541.5,410.21l-10.15,22.46h-33.6l67.39-150.1,3.32-7.32,3.42,7.42,67.48,150h-33.7l-10-22.56-.49-1.07H542Zm39.36-32.62-12.31-27.54-12.4,27.54Z" fill="none" stroke="#707070" stroke-miterlimit="10" stroke-width="5"/>
    <path id="Path_147" data-name="Path 147" d="M711.15,275.25V401.13H774v31.54H679.61V275.25Z" fill="none" stroke="#707070" stroke-miterlimit="10" stroke-width="5"/>
    <path id="Path_148" data-name="Path 148" d="M853.74,275.25V401.13h62.89v31.54H822.2V275.25Z" fill="none" stroke="#707070" stroke-miterlimit="10" stroke-width="5"/>
    <path id="Path_149" data-name="Path 149" d="M964.79,275.25h31.55V432.67H964.79Z" fill="none" stroke="#707070" stroke-miterlimit="10" stroke-width="5"/>
    <path id="Path_150" data-name="Path 150" d="M1088.44,410.21l-10.15,22.46h-33.6l67.38-150.1,3.32-7.32,3.42,7.42,67.48,150H1152.6l-10.06-22.56-.49-1.07h-53.12Zm39.36-32.62-12.31-27.54-12.4,27.54Z" fill="none" stroke="#707070" stroke-miterlimit="10" stroke-width="5"/>
    <path id="Path_151" data-name="Path 151" d="M1321,361.28v-86h31.54V432.67l-94.43-86.13v86.13h-31.55V275.25Z" fill="none" stroke="#707070" stroke-miterlimit="10" stroke-width="5"/>
    <path id="Path_152" data-name="Path 152" d="M1512.94,281.45a82.2,82.2,0,0,1,25.14,16.84l-22.26,22.27q-14.07-13.87-33.4-13.87a47.22,47.22,0,1,0,33.4,80.57l22.26,22.26a81.279,81.279,0,0,1-25.14,17,76,76,0,0,1-30.52,6.2q-32.52,0-55.62-23.1T1403.71,354q0-32.43,23.09-55.57t55.62-23.14a75.809,75.809,0,0,1,30.52,6.16Z" fill="none" stroke="#707070" stroke-miterlimit="10" stroke-width="5"/>
    <path id="Path_153" data-name="Path 153" d="M1677.75,275.25v31.44h-62.89v31.55H1662v31.44h-47.16v31.45h62.89v31.54h-94.44V275.25Z" fill="none" stroke="#707070" stroke-miterlimit="10" stroke-width="5"/>
    <path id="Path_154" data-name="Path 154" d="M568.76,250l-3.32-7.42-67.38-150h33.3l37.31,82.91L606,92.58h33.69Z" fill="url(#linear-gradient)"/>
    <path id="Path_155" data-name="Path 155" d="M667.42,227.54,657.26,250H623.67L691.05,99.9l3.32-7.32,3.42,7.42,67.48,150H731.58l-10.06-22.56-.49-1.07H667.9Zm39.35-32.62-12.3-27.54-12.41,27.54Z" fill="url(#linear-gradient-2)"/>
    <path id="Path_156" data-name="Path 156" d="M823.06,92.58V218.46H886V250H791.52V92.58Z" fill="url(#linear-gradient-3)"/>
    <path id="Path_157" data-name="Path 157" d="M920.11,92.58h31.54V250H920.11Z" fill="url(#linear-gradient-4)"/>
    <path id="Path_158" data-name="Path 158" d="M1075.37,115.72q23.13,23.15,23.14,55.57t-23.14,55.61Q1052.23,250,1019.8,250H988.26V92.58h31.54Q1052.22,92.58,1075.37,115.72Zm-22.27,88.92a47,47,0,0,0,0-66.7A45.34,45.34,0,0,0,1019.8,124v94.44a45.52,45.52,0,0,0,33.3-13.8Z" fill="url(#linear-gradient-5)"/>
    <path id="Path_159" data-name="Path 159" d="M1150.66,227.54,1140.5,250h-33.59l67.38-150.1,3.32-7.32L1181,100l67.48,150h-33.69l-10.06-22.56-.49-1.07h-53.12ZM1190,194.92l-12.3-27.54-12.4,27.54Z" fill="url(#linear-gradient-6)"/>
    <path id="Path_160" data-name="Path 160" d="M1325.66,92.58H1365V124h-39.35V250h-31.54V124h-39.36V92.58h70.9Z" fill="url(#linear-gradient-7)"/>
    <path id="Path_161" data-name="Path 161" d="M1514.92,115.72q23.14,23.15,23.14,55.57t-23.14,55.61q-23.14,23.1-55.57,23.1t-55.62-23.1q-23.09-23.09-23.09-55.61t23.09-55.57q23.1-23.14,55.62-23.14T1514.92,115.72ZM1426,137.94a47.16,47.16,0,1,0,51.487-10.345A47.15,47.15,0,0,0,1426,137.94Z" fill="url(#linear-gradient-8)"/>
    <path id="Path_162" data-name="Path 162" d="M1567.24,202.73V92.58h55.08a53.09,53.09,0,0,1,39,16.21q16.21,16.21,16.21,38.87a53,53,0,0,1-10,31.59A54.52,54.52,0,0,1,1642,199.12L1677.49,250H1639l-40.24-57.62V250h-31.54Zm55.08-31.44A23.58,23.58,0,0,0,1639,131a22.67,22.67,0,0,0-16.7-7h-23.54v47.27Z" fill="url(#linear-gradient-9)"/>
    <path id="Path_163" data-name="Path 163" d="M568.76,250l-3.32-7.42-67.38-150h33.3l37.31,82.91L606,92.58h33.69Z" fill="none" stroke="#707070" stroke-miterlimit="10" stroke-width="2"/>
    <path id="Path_164" data-name="Path 164" d="M667.42,227.54,657.26,250H623.67L691.05,99.9l3.32-7.32,3.42,7.42,67.48,150H731.58l-10.06-22.56-.49-1.07H667.9Zm39.35-32.62-12.3-27.54-12.41,27.54Z" fill="none" stroke="#707070" stroke-miterlimit="10" stroke-width="2"/>
    <path id="Path_165" data-name="Path 165" d="M823.06,92.58V218.46H886V250H791.52V92.58Z" fill="none" stroke="#707070" stroke-miterlimit="10" stroke-width="2"/>
    <path id="Path_166" data-name="Path 166" d="M920.11,92.58h31.54V250H920.11Z" fill="none" stroke="#707070" stroke-miterlimit="10" stroke-width="2"/>
    <path id="Path_167" data-name="Path 167" d="M1075.37,115.72q23.13,23.15,23.14,55.57t-23.14,55.61Q1052.23,250,1019.8,250H988.26V92.58h31.54Q1052.22,92.58,1075.37,115.72Zm-22.27,88.92a47,47,0,0,0,0-66.7A45.34,45.34,0,0,0,1019.8,124v94.44a45.52,45.52,0,0,0,33.3-13.8Z" fill="none" stroke="#707070" stroke-miterlimit="10" stroke-width="2"/>
    <path id="Path_168" data-name="Path 168" d="M1150.66,227.54,1140.5,250h-33.59l67.38-150.1,3.32-7.32L1181,100l67.48,150h-33.69l-10.06-22.56-.49-1.07h-53.12ZM1190,194.92l-12.3-27.54-12.4,27.54Z" fill="none" stroke="#707070" stroke-miterlimit="10" stroke-width="2"/>
    <path id="Path_169" data-name="Path 169" d="M1325.66,92.58H1365V124h-39.35V250h-31.54V124h-39.36V92.58h70.9Z" fill="none" stroke="#707070" stroke-miterlimit="10" stroke-width="2"/>
    <path id="Path_170" data-name="Path 170" d="M1514.92,115.72q23.14,23.15,23.14,55.57t-23.14,55.61q-23.14,23.1-55.57,23.1t-55.62-23.1q-23.09-23.09-23.09-55.61t23.09-55.57q23.1-23.14,55.62-23.14T1514.92,115.72ZM1426,137.94a47.16,47.16,0,1,0,51.487-10.345A47.15,47.15,0,0,0,1426,137.94Z" fill="none" stroke="#707070" stroke-miterlimit="10" stroke-width="2"/>
    <path id="Path_171" data-name="Path 171" d="M1567.24,202.73V92.58h55.08a53.09,53.09,0,0,1,39,16.21q16.21,16.21,16.21,38.87a53,53,0,0,1-10,31.59A54.52,54.52,0,0,1,1642,199.12L1677.49,250H1639l-40.24-57.62V250h-31.54Zm55.08-31.44A23.58,23.58,0,0,0,1639,131a22.67,22.67,0,0,0-16.7-7h-23.54v47.27Z" fill="none" stroke="#707070" stroke-miterlimit="10" stroke-width="2"/>
    <path id="Path_172" data-name="Path 172" d="M125,325,250,100,375,325H325L250,190,175,325Z" fill="none" stroke="#707070" stroke-miterlimit="10" stroke-width="5"/>
    <circle id="Ellipse_34" data-name="Ellipse 34" cx="187.5" cy="187.5" r="187.5" transform="translate(62.5 62.5)" fill="none" stroke="#707070" stroke-miterlimit="10" stroke-width="5"/>
    <circle id="Ellipse_35" data-name="Ellipse 35" cx="26.81" cy="26.81" r="26.81" transform="translate(223.19 31.7)" stroke="#707070" stroke-miterlimit="10" stroke-width="2" fill="url(#linear-gradient-10)"/>
    <circle id="Ellipse_36" data-name="Ellipse 36" cx="26.81" cy="26.81" r="26.81" transform="translate(127.45 57.36)" stroke="#707070" stroke-miterlimit="10" stroke-width="2" fill="url(#linear-gradient-11)"/>
    <circle id="Ellipse_37" data-name="Ellipse 37" cx="26.81" cy="26.81" r="26.81" transform="translate(57.36 127.45)" stroke="#707070" stroke-miterlimit="10" stroke-width="2" fill="url(#linear-gradient-12)"/>
    <circle id="Ellipse_38" data-name="Ellipse 38" cx="26.81" cy="26.81" r="26.81" transform="translate(31.7 223.19)" stroke="#707070" stroke-miterlimit="10" stroke-width="2" fill="url(#linear-gradient-13)"/>
    <circle id="Ellipse_39" data-name="Ellipse 39" cx="26.81" cy="26.81" r="26.81" transform="translate(57.36 318.93)" stroke="#707070" stroke-miterlimit="10" stroke-width="2" fill="url(#linear-gradient-12)"/>
    <circle id="Ellipse_40" data-name="Ellipse 40" cx="26.81" cy="26.81" r="26.81" transform="translate(127.45 389.02)" stroke="#707070" stroke-miterlimit="10" stroke-width="2" fill="url(#linear-gradient-11)"/>
    <circle id="Ellipse_41" data-name="Ellipse 41" cx="26.81" cy="26.81" r="26.81" transform="translate(223.19 414.68)" stroke="#707070" stroke-miterlimit="10" stroke-width="2" fill="url(#linear-gradient-10)"/>
    <circle id="Ellipse_42" data-name="Ellipse 42" cx="26.81" cy="26.81" r="26.81" transform="translate(318.93 389.02)" stroke="#707070" stroke-miterlimit="10" stroke-width="2" fill="url(#linear-gradient-17)"/>
    <circle id="Ellipse_43" data-name="Ellipse 43" cx="26.81" cy="26.81" r="26.81" transform="translate(389.02 318.93)" stroke="#707070" stroke-miterlimit="10" stroke-width="2" fill="url(#linear-gradient-18)"/>
    <circle id="Ellipse_44" data-name="Ellipse 44" cx="26.81" cy="26.81" r="26.81" transform="translate(414.68 223.19)" stroke="#707070" stroke-miterlimit="10" stroke-width="2" fill="url(#linear-gradient-19)"/>
    <circle id="Ellipse_45" data-name="Ellipse 45" cx="26.81" cy="26.81" r="26.81" transform="translate(389.02 127.45)" stroke="#707070" stroke-miterlimit="10" stroke-width="2" fill="url(#linear-gradient-18)"/>
    <circle id="Ellipse_46" data-name="Ellipse 46" cx="26.81" cy="26.81" r="26.81" transform="translate(318.93 57.36)" stroke="#707070" stroke-miterlimit="10" stroke-width="2" fill="url(#linear-gradient-17)"/>
    <path id="Path_173" data-name="Path 173" d="M125,175,250,400,375,175H325L250,310,175,175Z" stroke="#707070" stroke-miterlimit="10" stroke-width="2" fill="url(#linear-gradient-22)"/>
  </g>
</svg>
