<svg width="19" height="21" viewBox="0 0 19 21" fill="none" xmlns="http://www.w3.org/2000/svg">
<path d="M12.6064 9.975C12.588 10.183 12.5074 10.3813 12.3744 10.5457C12.2415 10.7101 12.0619 10.8336 11.8576 10.9009C11.6533 10.9683 11.4332 10.9767 11.224 10.9252C11.0149 10.8736 10.8258 10.7642 10.6798 10.6105C10.5339 10.4567 10.4374 10.2651 10.4021 10.0592C10.3668 9.85329 10.3942 9.64188 10.4811 9.4508C10.5679 9.25971 10.7104 9.0972 10.8912 8.98312C11.0719 8.86903 11.2831 8.8083 11.4989 8.80833C11.6509 8.81448 11.8001 8.84955 11.9381 8.91154C12.076 8.97352 12.1999 9.0612 12.3028 9.16957C12.4057 9.27793 12.4854 9.40485 12.5375 9.54305C12.5896 9.68126 12.613 9.82804 12.6064 9.975ZM7.53607 8.80833C7.23086 8.82922 6.94519 8.9612 6.73661 9.1777C6.52803 9.39419 6.41206 9.6791 6.41206 9.975C6.41206 10.2709 6.52803 10.5558 6.73661 10.7723C6.94519 10.9888 7.23086 11.1208 7.53607 11.1417C7.68804 11.1355 7.83726 11.1004 7.9752 11.0385C8.11314 10.9765 8.23709 10.8888 8.33995 10.7804C8.44281 10.6721 8.52256 10.5452 8.57465 10.4069C8.62674 10.2687 8.65013 10.122 8.6435 9.975C8.65111 9.82773 8.62835 9.68046 8.57655 9.54177C8.52475 9.40309 8.44494 9.27575 8.34176 9.16718C8.23859 9.0586 8.11412 8.97096 7.97559 8.90936C7.83706 8.84775 7.68724 8.81341 7.53486 8.80833H7.53607ZM19 2.163V21C16.2646 18.6626 17.1398 19.4361 13.9623 16.5795L14.5377 18.522H2.22572C1.63403 18.5205 1.0672 18.2917 0.649828 17.8861C0.23246 17.4805 -0.00127624 16.9312 5.24172e-06 16.359V2.163C-0.00127624 1.59078 0.23246 1.04148 0.649828 0.635871C1.0672 0.230263 1.63403 0.00154521 2.22572 0L16.7743 0C17.366 0.00154521 17.9328 0.230263 18.3502 0.635871C18.7675 1.04148 19.0013 1.59078 19 2.163ZM15.9057 12.117C15.8706 9.98834 15.336 7.89519 14.3423 5.9955C13.4679 5.33133 12.4019 4.94609 11.2914 4.893L11.1394 5.061C12.128 5.3154 13.0495 5.76993 13.8429 6.3945C12.6042 5.74869 11.2292 5.3855 9.82301 5.33272C8.41686 5.27994 7.01687 5.53898 5.73016 6.09C5.32845 6.2685 5.08959 6.3945 5.08959 6.3945C5.92583 5.73754 6.90163 5.26708 7.94743 5.01667L7.84127 4.893C6.73081 4.94609 5.66478 5.33133 4.79042 5.9955C3.79589 7.895 3.26047 9.98815 3.22458 12.117C3.59903 12.6251 4.09688 13.0364 4.67431 13.3147C5.25175 13.593 5.89107 13.7298 6.53601 13.713C6.53601 13.713 6.93772 13.2405 7.26343 12.8415C6.50016 12.6552 5.82813 12.217 5.36343 11.6025C5.52327 11.7104 5.78566 11.851 5.80858 11.865C6.83901 12.4082 7.98147 12.723 9.15321 12.7866C10.325 12.8501 11.4966 12.6609 12.5834 12.2325C13.0225 12.0723 13.4413 11.8644 13.832 11.613C13.3499 12.2407 12.6538 12.6833 11.8669 12.8625C12.1926 13.2615 12.5834 13.713 12.5834 13.713C13.2297 13.7288 13.8702 13.5916 14.4492 13.3135C15.0283 13.0353 15.5282 12.6246 15.9057 12.117Z" fill="url(#paint0_linear_247_8)"/>
<defs>
<linearGradient id="paint0_linear_247_8" x1="9.5" y1="0" x2="9.5" y2="21" gradientUnits="userSpaceOnUse">
<stop stop-color="#A92E9B"/>
<stop offset="1" stop-color="#E71F7A"/>
</linearGradient>
</defs>
</svg>
