<svg width="21" height="21" viewBox="0 0 21 21" fill="none" xmlns="http://www.w3.org/2000/svg">
<path fill-rule="evenodd" clip-rule="evenodd" d="M20.9996 10.5C21.0241 13.2605 19.9316 15.9175 17.9625 17.8866C15.9935 19.8557 13.309 20.9756 10.4996 21C7.69041 20.9754 5.00613 19.8554 3.0372 17.8863C1.06827 15.9173 -0.0240786 13.2604 0.000402798 10.5C-0.0240786 7.73963 1.06827 5.08273 3.0372 3.11365C5.00613 1.14458 7.69041 0.0245838 10.4996 0C13.309 0.0243992 15.9935 1.14431 17.9625 3.11341C19.9316 5.0825 21.0241 7.73951 20.9996 10.5ZM10.4647 2.24C9.95001 2.2443 9.44119 2.34822 8.96735 2.54582C8.49351 2.74341 8.06394 3.03082 7.70318 3.3916C7.34243 3.75239 7.05755 4.17949 6.86484 4.6485C6.67213 5.11751 6.57536 5.61923 6.58006 6.125V8.645C6.57536 9.15077 6.67213 9.65249 6.86484 10.1215C7.05755 10.5905 7.34243 11.0176 7.70318 11.3784C8.06394 11.7392 8.49351 12.0266 8.96735 12.2242C9.44119 12.4218 9.95001 12.5257 10.4647 12.53C10.7595 12.53 11.0533 12.4967 11.3403 12.4306C11.3792 12.4223 11.415 12.4034 11.4436 12.3761C11.4722 12.3488 11.4925 12.3142 11.5021 12.2762C11.5117 12.2382 11.5104 12.1983 11.4981 12.161C11.4859 12.1237 11.4633 12.0905 11.4329 12.0652L11.4101 12.0435L9.17246 9.905C8.99362 9.73103 8.85177 9.52385 8.75516 9.29553C8.65854 9.0672 8.60908 8.82228 8.60967 8.575V6.195C8.60967 5.71156 8.80511 5.24793 9.153 4.90609C9.5009 4.56424 9.97274 4.3722 10.4647 4.3722C10.9567 4.3722 11.4286 4.56424 11.7765 4.90609C12.1244 5.24793 12.3198 5.71156 12.3198 6.195V6.2832C12.3162 6.41637 12.3398 6.5489 12.3892 6.67296C12.4386 6.79703 12.5127 6.91012 12.6073 7.00556C12.7019 7.101 12.815 7.17685 12.9399 7.22864C13.0648 7.28044 13.199 7.30712 13.3346 7.30712C13.4702 7.30712 13.6044 7.28044 13.7293 7.22864C13.8542 7.17685 13.9673 7.101 14.0619 7.00556C14.1565 6.91012 14.2306 6.79703 14.28 6.67296C14.3294 6.5489 14.353 6.41637 14.3494 6.2832V6.1236C14.3539 5.61795 14.257 5.11637 14.0642 4.64753C13.8714 4.17868 13.5865 3.75175 13.2258 3.39111C12.865 3.03047 12.4355 2.74319 11.9618 2.54568C11.488 2.34817 10.9793 2.2443 10.4647 2.24V2.24ZM14.3494 14.6657C14.3593 15.1731 14.2661 15.6774 14.0754 16.149C13.8846 16.6206 13.6 17.0501 13.2383 17.4124C12.8766 17.7747 12.445 18.0625 11.9688 18.259C11.4925 18.4554 10.9812 18.5566 10.4647 18.5566C9.94824 18.5566 9.43692 18.4554 8.96069 18.259C8.48446 18.0625 8.05288 17.7747 7.69117 17.4124C7.32947 17.0501 7.0449 16.6206 6.85412 16.149C6.66334 15.6774 6.57017 15.1731 6.58006 14.6657V14.5082C6.58707 14.2483 6.69706 14.0014 6.88661 13.82C7.07616 13.6386 7.33028 13.5371 7.59486 13.5371C7.85944 13.5371 8.11357 13.6386 8.30312 13.82C8.49267 14.0014 8.60266 14.2483 8.60967 14.5082V14.5957C8.60967 15.079 8.80507 15.5426 9.1529 15.8844C9.50073 16.2261 9.97248 16.4181 10.4644 16.4181C10.9563 16.4181 11.428 16.2261 11.7759 15.8844C12.1237 15.5426 12.3191 15.079 12.3191 14.5957V12.2157C12.3197 11.9684 12.2702 11.7235 12.1736 11.4952C12.077 11.2668 11.9351 11.0597 11.7563 10.8857L9.51868 8.7479L9.49588 8.7262C9.46546 8.70083 9.44288 8.6676 9.43069 8.63027C9.4185 8.59294 9.41718 8.55301 9.42689 8.51498C9.4366 8.47696 9.45695 8.44236 9.48564 8.41511C9.51433 8.38786 9.5502 8.36905 9.58921 8.3608C9.87618 8.29467 10.17 8.26132 10.4647 8.2614C10.9795 8.2657 11.4883 8.36962 11.9621 8.56722C12.436 8.76481 12.8655 9.05222 13.2263 9.413C13.587 9.77379 13.8719 10.2009 14.0646 10.6699C14.2573 11.1389 14.3541 11.6406 14.3494 12.1464V14.6657Z" fill="url(#paint0_linear_674_8316)"/>
<defs>
<linearGradient id="paint0_linear_674_8316" x1="-1.54866e-07" y1="10" x2="21" y2="10" gradientUnits="userSpaceOnUse">
<stop stop-color="#9C268C"/>
<stop offset="1" stop-color="#DE207C"/>
</linearGradient>
</defs>
</svg>
