<svg width="25" height="21" viewBox="0 0 25 21" fill="none" xmlns="http://www.w3.org/2000/svg">
<path d="M24.9287 1.91137L21.156 19.7323C20.8712 20.99 20.1292 21.3032 19.0745 20.7105L13.3263 16.4679L10.5523 19.1396C10.4164 19.3167 10.2413 19.4599 10.0408 19.5579C9.84033 19.6559 9.61991 19.706 9.39685 19.7043L9.80977 13.8406L20.4635 4.19805C20.9294 3.78447 20.3633 3.55638 19.7437 3.9688L6.5734 12.2755L0.903212 10.4975C-0.330299 10.1119 -0.35243 9.26199 1.16005 8.66932L23.3382 0.111783C24.3656 -0.273801 25.2636 0.341034 24.9287 1.91137Z" fill="url(#paint0_linear_247_12)"/>
<defs>
<linearGradient id="paint0_linear_247_12" x1="0" y1="0" x2="28" y2="2.26282e-07" gradientUnits="userSpaceOnUse">
<stop stop-color="#9A268D"/>
<stop offset="1" stop-color="#E71F7A"/>
</linearGradient>
</defs>
</svg>
