<?xml version="1.0" standalone="no"?>
<!DOCTYPE svg PUBLIC "-//W3C//DTD SVG 20010904//EN"
 "http://www.w3.org/TR/2001/REC-SVG-20010904/DTD/svg10.dtd">
<svg version="1.0" xmlns="http://www.w3.org/2000/svg"
 width="439.000000pt" height="439.000000pt" viewBox="0 0 439.000000 439.000000"
 preserveAspectRatio="xMidYMid meet">
<metadata>
Created by potrace 1.14, written by Peter Selinger 2001-2017
</metadata>
<g transform="translate(0.000000,439.000000) scale(0.100000,-0.100000)"
fill="#000000" stroke="none">
<path d="M2120 4380 c-102 -30 -182 -115 -198 -213 -7 -38 -10 -42 -47 -50
-130 -27 -231 -53 -313 -80 l-93 -31 -25 32 c-65 82 -195 116 -302 78 -148
-53 -222 -217 -163 -368 9 -23 7 -28 -16 -43 -35 -23 -233 -221 -267 -266
l-27 -37 -47 14 c-93 29 -169 17 -250 -38 -143 -98 -153 -322 -18 -434 24 -20
32 -33 26 -44 -20 -38 -72 -215 -92 -314 -23 -108 -23 -109 -53 -113 -51 -7
-118 -45 -162 -92 -71 -76 -91 -194 -50 -292 33 -79 123 -152 204 -165 40 -6
41 -7 48 -53 11 -75 63 -273 89 -339 14 -34 21 -62 16 -62 -17 0 -74 -68 -97
-117 -68 -146 8 -322 161 -375 63 -22 108 -22 172 -3 l49 15 55 -62 c74 -83
144 -153 212 -212 l57 -49 -15 -36 c-8 -19 -15 -54 -16 -76 -5 -271 311 -396
491 -194 l24 27 71 -25 c95 -32 250 -73 306 -80 57 -7 66 -14 74 -64 13 -79
81 -159 164 -193 163 -65 351 38 379 208 5 34 8 36 62 46 93 18 247 59 317 84
l65 24 42 -42 c63 -63 108 -81 197 -80 122 1 200 50 251 158 24 50 28 69 25
125 -2 36 -10 79 -17 94 -11 25 -10 29 12 44 29 20 235 225 272 271 l26 33 57
-17 c190 -55 378 109 349 305 -9 64 -33 109 -82 158 l-42 43 25 66 c25 66 62
207 84 315 11 55 12 57 49 63 50 8 124 50 157 89 94 111 90 275 -9 377 -35 36
-118 79 -160 82 -15 1 -27 5 -28 8 -11 79 -52 244 -84 339 l-32 97 39 37 c70
68 105 189 78 274 -51 161 -217 244 -372 184 -24 -9 -29 -6 -61 32 -46 56
-159 170 -230 232 l-56 50 15 55 c27 97 1 200 -67 268 -111 112 -282 112 -395
1 l-42 -41 -98 32 c-122 39 -279 77 -325 79 -11 1 -19 14 -23 42 -14 85 -76
167 -156 202 -47 21 -146 30 -190 17z m590 -454 c143 -44 160 -50 161 -66 5
-115 65 -209 164 -256 65 -31 161 -32 224 -4 l44 20 31 -24 c45 -34 196 -183
243 -240 l42 -50 -21 -40 c-31 -60 -29 -166 2 -229 41 -82 142 -156 215 -157
17 0 35 -4 42 -8 37 -24 145 -432 114 -432 -19 0 -89 -76 -111 -120 -31 -61
-37 -144 -15 -211 13 -40 34 -70 77 -113 l59 -58 -21 -102 c-19 -95 -72 -277
-88 -303 -4 -6 -27 -14 -52 -18 -147 -22 -251 -143 -244 -286 1 -32 11 -77 22
-101 14 -32 16 -47 8 -55 -6 -6 -25 -28 -43 -49 -42 -52 -112 -122 -189 -191
l-64 -56 -62 21 c-179 58 -349 -47 -374 -231 l-6 -45 -72 -26 c-104 -37 -219
-67 -316 -82 -32 -5 -38 -1 -65 34 -57 76 -152 118 -245 109 -88 -8 -159 -50
-212 -126 l-16 -23 -86 17 c-100 18 -243 59 -302 84 -36 16 -41 22 -42 55 -3
87 -81 193 -169 232 -55 24 -167 23 -220 -3 l-41 -20 -44 36 c-57 48 -208 199
-241 243 l-27 35 21 48 c17 39 21 62 17 119 -6 87 -31 139 -92 193 -46 40
-143 80 -170 70 -8 -3 -19 0 -25 7 -19 22 -73 200 -96 311 l-22 110 31 23 c83
61 120 134 119 234 -1 54 -6 77 -32 125 -19 34 -49 71 -72 88 -39 29 -40 32
-36 75 8 67 34 173 67 275 32 96 45 123 55 113 3 -3 25 -2 48 3 176 38 272
212 208 379 l-19 51 25 32 c38 47 234 241 264 260 24 16 28 16 60 0 49 -25
146 -29 207 -9 97 33 178 136 184 233 2 41 4 43 52 62 53 21 209 66 261 76
115 21 111 22 160 -33 46 -52 120 -94 168 -96 15 0 27 -5 27 -10 0 -7 -78
-150 -290 -531 -9 -16 -32 -57 -50 -90 -18 -33 -42 -73 -52 -90 -10 -16 -21
-37 -25 -45 -8 -18 -183 -333 -187 -337 -1 -2 -12 16 -25 40 -12 23 -41 75
-63 114 l-41 73 -259 -2 c-142 0 -258 -2 -258 -4 0 -4 47 -90 180 -329 65
-115 132 -237 150 -270 17 -33 36 -64 41 -69 16 -18 10 -35 -63 -164 -39 -70
-85 -152 -101 -182 -17 -30 -50 -91 -75 -135 -25 -44 -59 -105 -75 -135 -17
-30 -59 -106 -94 -169 -34 -62 -63 -116 -63 -120 0 -4 602 -6 651 -2 3 1 40
64 83 141 89 159 75 157 146 25 24 -44 52 -93 64 -110 11 -16 20 -32 20 -35
-1 -3 4 -14 11 -25 7 -11 63 -112 125 -225 62 -113 121 -218 130 -235 9 -16
32 -57 50 -90 54 -99 82 -146 85 -143 2 2 49 86 105 188 57 102 114 205 128
230 14 25 79 142 144 260 66 118 131 235 145 259 l25 43 37 -63 c20 -35 50
-90 66 -121 57 -111 16 -100 386 -100 227 0 323 4 321 11 -1 6 -33 66 -71 134
-37 67 -83 149 -101 182 -18 33 -42 76 -53 95 -25 45 -111 199 -150 270 -16
30 -47 85 -67 121 l-38 67 32 58 c18 33 46 84 63 114 16 30 84 152 150 270 66
118 125 225 131 237 l12 22 -262 -2 -262 -2 -34 -60 c-19 -33 -45 -81 -59
-107 -14 -27 -29 -48 -34 -48 -5 0 -15 15 -24 33 -8 17 -33 64 -55 102 -23 39
-50 88 -61 110 -11 22 -28 54 -38 70 -16 28 -46 81 -109 195 -14 25 -44 79
-67 120 -23 41 -57 102 -75 135 -18 33 -64 115 -101 182 -38 68 -70 128 -71
135 -2 6 10 13 26 14 53 5 136 54 174 103 l37 47 90 -17 c50 -10 128 -29 175
-43z m-493 -416 c22 -40 57 -103 133 -240 29 -52 64 -115 78 -140 14 -25 39
-70 55 -100 17 -30 79 -142 139 -249 l108 -194 -81 -148 c-45 -82 -84 -149
-88 -149 -6 0 -21 24 -79 130 -19 36 -50 91 -68 123 -19 32 -34 60 -34 61 0 2
-33 61 -72 132 -40 71 -82 146 -93 166 -11 21 -22 34 -26 30 -6 -6 -48 -82
-107 -192 -13 -25 -27 -49 -32 -55 -4 -5 -27 -46 -50 -90 -24 -44 -52 -96 -63
-115 -11 -19 -34 -60 -50 -90 -17 -30 -38 -67 -47 -83 l-17 -27 -11 22 c-6 13
-32 59 -56 103 -25 44 -58 103 -72 131 l-27 52 268 481 c147 265 269 481 270
479 2 -2 12 -19 22 -38z m105 -1090 c162 -292 161 -289 150 -303 -5 -7 -24
-39 -42 -72 -40 -74 -232 -419 -235 -423 -2 -2 -20 28 -41 65 -20 37 -46 82
-55 100 -10 18 -35 63 -55 100 -21 37 -49 88 -64 113 -14 25 -36 66 -49 91
l-24 46 142 257 c79 141 144 256 146 254 1 -2 58 -104 127 -228z m-912 -332
c5 -13 28 -54 50 -93 22 -38 54 -97 71 -130 l31 -61 -77 -139 c-43 -77 -79
-142 -81 -144 -6 -7 -334 -6 -334 2 0 11 320 587 326 587 3 0 9 -10 14 -22z
m1620 -42 c0 -3 23 -43 50 -91 28 -48 50 -88 50 -89 0 -2 23 -42 50 -90 28
-48 50 -89 50 -91 0 -2 20 -38 46 -80 25 -43 43 -79 42 -81 -4 -3 -247 -7
-309 -5 -23 1 -36 18 -103 137 -42 75 -76 144 -76 152 0 13 85 175 143 270
l19 33 19 -31 c11 -17 19 -32 19 -34z"/>
</g>
</svg>
